<?xml version="1.0" encoding="UTF-8" standalone="no"?>
<!-- Generator: Adobe Illustrator 19.0.0, SVG Export Plug-In . SVG Version: 6.00 Build 0)  -->

<svg
   xmlns:dc="http://purl.org/dc/elements/1.1/"
   xmlns:cc="http://creativecommons.org/ns#"
   xmlns:rdf="http://www.w3.org/1999/02/22-rdf-syntax-ns#"
   xmlns:svg="http://www.w3.org/2000/svg"
   xmlns="http://www.w3.org/2000/svg"
   xmlns:sodipodi="http://sodipodi.sourceforge.net/DTD/sodipodi-0.dtd"
   xmlns:inkscape="http://www.inkscape.org/namespaces/inkscape"
   version="1.1"
   id="Layer_1"
   x="0px"
   y="0px"
   viewBox="0 0 128 128"
   xml:space="preserve"
   sodipodi:docname="favicon.svg"
   width="128"
   height="128"
   inkscape:version="0.92.4 5da689c313, 2019-01-14"
   inkscape:export-filename="/home/fox/DEV/slowCooker/public/favicon.png"
   inkscape:export-xdpi="96"
   inkscape:export-ydpi="96"><metadata
   id="metadata45"><rdf:RDF><cc:Work
       rdf:about=""><dc:format>image/svg+xml</dc:format><dc:type
         rdf:resource="http://purl.org/dc/dcmitype/StillImage" /><dc:title></dc:title></cc:Work></rdf:RDF></metadata><defs
   id="defs43" /><sodipodi:namedview
   pagecolor="#ffffff"
   bordercolor="#666666"
   borderopacity="1"
   objecttolerance="10"
   gridtolerance="10"
   guidetolerance="10"
   inkscape:pageopacity="0"
   inkscape:pageshadow="2"
   inkscape:window-width="1868"
   inkscape:window-height="1051"
   id="namedview41"
   showgrid="false"
   inkscape:zoom="2.6516486"
   inkscape:cx="15.838087"
   inkscape:cy="-16.623408"
   inkscape:window-x="52"
   inkscape:window-y="0"
   inkscape:window-maximized="1"
   inkscape:current-layer="Layer_1" />
<g
   transform="matrix(0.24687082,0,0,0.24687082,3.6114781,0.21715941)"
   id="g6">
	<path
   style="fill:#ecf4f7"
   d="m 443,302.467 v 119.467 c 0,18.773 -15.36,34.133 -34.133,34.133 H 84.6 c -18.773,0 -34.133,-15.36 -34.133,-34.133 V 302.467 200.067 165.934 H 443 v 34.133 z m 0,-136.534 H 50.467 33.4 c 0,0 51.2,-68.267 213.333,-68.267 162.133,0 213.333,68.267 213.333,68.267 z"
   id="path2"
   inkscape:connector-curvature="0" />
	<path
   style="fill:#aab1ba"
   d="m 246.733,29.4 c 14.507,0 25.6,11.093 25.6,25.6 0,14.507 -11.093,25.6 -25.6,25.6 -14.507,0 -25.6,-11.093 -25.6,-25.6 0,-14.507 11.094,-25.6 25.6,-25.6"
   id="path4"
   inkscape:connector-curvature="0" />
</g>
<path
   style="fill:#51565f;stroke-width:0.24687083"
   d="M 104.5488,113.85994 H 24.496749 c -5.266495,0 -9.479839,-4.21333 -9.479839,-9.47984 V 50.661014 H 7.643619 c -1.6853871,0 -3.1599465,1.47456 -3.1599465,3.159946 v 16.853131 c 0,1.685386 1.4745594,3.159947 3.1599465,3.159947 0.6319898,0 1.0533978,0.421407 1.0533978,1.053397 0,0.631989 -0.421408,1.053398 -1.0533978,1.053398 C 4.6945002,75.940585 2.3771239,73.623456 2.3771239,70.674091 V 53.82096 c 0,-2.949119 2.3173763,-5.266495 5.2664951,-5.266495 h 8.426442 c 0.631989,0 1.053398,0.421409 1.053398,1.053398 v 54.772487 c 0,4.00251 3.370527,7.37329 7.37329,7.37329 H 104.5488 c 4.00251,0 7.3733,-3.37053 7.3733,-7.37329 V 49.607863 c 0,-0.631989 0.4214,-1.053398 1.0534,-1.053398 h 8.42643 c 2.94937,0 5.2665,2.317376 5.2665,5.266495 v 16.853131 c 0,2.949365 -2.31738,5.266494 -5.2665,5.266494 -0.63198,0 -1.05339,-0.421409 -1.05339,-1.053398 0,-0.631989 0.42141,-1.053398 1.05339,-1.053398 1.68539,0 3.15995,-1.474558 3.15995,-3.159945 V 53.820713 c 0,-1.685387 -1.47456,-3.159945 -3.15995,-3.159945 h -7.37328 v 53.719092 c 0,5.26699 -4.21335,9.48008 -9.47985,9.48008 z m 0,-33.70601 c -0.632,0 -1.05339,-0.421408 -1.05339,-1.053398 v -16.85313 c 0,-0.631989 0.42139,-1.053397 1.05339,-1.053397 0.63199,0 1.0534,0.421408 1.0534,1.053397 v 16.85313 c -2.4e-4,0.63199 -0.42141,1.053398 -1.0534,1.053398 z m 0,-25.279572 c -0.632,0 -1.05339,-0.421408 -1.05339,-1.053398 v -4.213343 c 0,-0.631989 0.42139,-1.053398 1.05339,-1.053398 0.63199,0 1.0534,0.421409 1.0534,1.053398 v 4.213343 c -2.4e-4,0.63199 -0.42141,1.053398 -1.0534,1.053398 z M 117.18859,42.234573 H 11.856963 c -0.421408,0 -0.84257,-0.21058 -0.84257,-0.63199 -0.210581,-0.421408 -0.210581,-0.842569 0,-1.053397 0.421409,-0.631989 13.271775,-17.063712 52.455111,-17.274292 v -2.106549 c -3.581355,-0.421409 -6.319893,-3.581355 -6.319893,-7.37329 0,-4.0025171 3.370527,-7.3732912 7.37329,-7.3732912 4.002764,0 7.373044,3.3707741 7.373044,7.3732912 0,3.791935 -2.738537,6.741301 -6.319892,7.37329 v 2.106549 c 39.183317,0.21058 52.033697,16.642303 52.455107,17.274292 0.21059,0.421409 0.21059,0.84257 0,1.053397 -0.21058,0.210581 -0.42141,0.63199 -0.84257,0.63199 z M 14.38492,40.128023 h 100.4863 C 110.44729,35.91468 95.911541,25.38169 64.733482,25.38169 33.134018,25.381442 18.808846,35.91468 14.38492,40.128023 Z M 64.522656,8.5285592 c -2.949367,0 -5.266496,2.3173758 -5.266496,5.2664958 0,2.949118 2.317376,5.266494 5.266496,5.266494 2.949364,0 5.266493,-2.317376 5.266493,-5.266494 0,-2.94912 -2.317129,-5.2664958 -5.266493,-5.2664958 z"
   id="path8"
   inkscape:connector-curvature="0" />
<g
   id="g10"
   transform="translate(0,-375.46701)">
</g>
<g
   id="g12"
   transform="translate(0,-375.46701)">
</g>
<g
   id="g14"
   transform="translate(0,-375.46701)">
</g>
<g
   id="g16"
   transform="translate(0,-375.46701)">
</g>
<g
   id="g18"
   transform="translate(0,-375.46701)">
</g>
<g
   id="g20"
   transform="translate(0,-375.46701)">
</g>
<g
   id="g22"
   transform="translate(0,-375.46701)">
</g>
<g
   id="g24"
   transform="translate(0,-375.46701)">
</g>
<g
   id="g26"
   transform="translate(0,-375.46701)">
</g>
<g
   id="g28"
   transform="translate(0,-375.46701)">
</g>
<g
   id="g30"
   transform="translate(0,-375.46701)">
</g>
<g
   id="g32"
   transform="translate(0,-375.46701)">
</g>
<g
   id="g34"
   transform="translate(0,-375.46701)">
</g>
<g
   id="g36"
   transform="translate(0,-375.46701)">
</g>
<g
   id="g38"
   transform="translate(0,-375.46701)">
</g>
</svg>